<?xml version="1.0" encoding="UTF-8"?>
<!-- Generator: visioncortex VTracer 0.6.1 -->
<svg version="1.1" xmlns="http://www.w3.org/2000/svg" width="100" height="100">
<path d="M0 0 C422.4 0 844.8 0 1280 0 C1280 232.98 1280 465.96 1280 706 C857.6 706 435.2 706 0 706 C0 473.02 0 240.04 0 0 Z " fill="#FBFCFE" transform="translate(0,0)"/>
<path d="M0 0 C2.5212802 1.08345336 5.04367218 2.1220274 7.59375 3.1328125 C20.41444573 8.27310849 32.41971984 14.58163477 44.390625 21.45703125 C45.03757324 21.82828125 45.68452148 22.19953125 46.35107422 22.58203125 C60.87982306 31.01356359 74.21723391 40.97319387 86.79150391 52.06835938 C90.11015675 54.95026737 93.55600206 57.67710937 96.98828125 60.421875 C99.60566031 62.63919938 101.98889947 65.00897018 104.390625 67.45703125 C105.05707031 68.10027344 105.72351563 68.74351563 106.41015625 69.40625 C107.00183594 69.97988281 107.59351563 70.55351563 108.203125 71.14453125 C108.80769531 71.72589844 109.41226563 72.30726562 110.03515625 72.90625 C111.390625 74.45703125 111.390625 74.45703125 111.390625 76.45703125 C112.380625 76.78703125 113.370625 77.11703125 114.390625 77.45703125 C116.97058025 79.88218918 119.13569253 82.73248289 121.390625 85.45703125 C122.08406006 86.28412598 122.08406006 86.28412598 122.79150391 87.12792969 C135.30125471 102.06913062 146.28886748 117.80550576 156.390625 134.45703125 C156.7731543 135.08319336 157.15568359 135.70935547 157.54980469 136.35449219 C160.20273315 140.69914315 162.81404623 145.06668398 165.390625 149.45703125 C165.78169434 150.1226709 166.17276367 150.78831055 166.57568359 151.47412109 C170.93413789 158.93538397 175.00171556 166.31571979 178.16015625 174.37890625 C179.29563277 177.21939989 180.54083107 179.9893842 181.82006836 182.76733398 C211.6159355 248.21609386 212.61720047 323.70122098 193.390625 392.08203125 C193.05836914 393.26861328 192.72611328 394.45519531 192.38378906 395.67773438 C190.70943882 401.4828071 188.8737769 407.00125113 186.30615234 412.47167969 C184.90955876 415.50023943 183.82575656 418.63088267 182.703125 421.76953125 C167.95850787 461.64129483 143.9616986 497.1941375 115.390625 528.45703125 C114.55917969 529.39289062 113.72773437 530.32875 112.87109375 531.29296875 C102.63033821 542.71823335 91.42204892 552.93766288 79.390625 562.45703125 C78.25480003 563.37319195 77.1194053 564.28988623 75.984375 565.20703125 C69.04629176 570.7789392 62.01602228 575.84732781 54.390625 580.45703125 C53.37484375 581.09125 52.3590625 581.72546875 51.3125 582.37890625 C32.42131521 594.15167358 13.20145497 603.5671425 -7.609375 611.45703125 C-8.32367676 611.72902344 -9.03797852 612.00101563 -9.77392578 612.28125 C-32.09830901 620.6283978 -55.92310371 625.32268227 -79.609375 627.45703125 C-80.59454102 627.54984375 -81.57970703 627.64265625 -82.59472656 627.73828125 C-91.47336952 628.5067573 -100.32878512 628.69984205 -109.234375 628.70703125 C-109.99538513 628.70770599 -110.75639526 628.70838074 -111.54046631 628.70907593 C-152.92706866 628.65136832 -192.94884337 618.7692098 -231.609375 604.45703125 C-232.62136963 604.08384766 -232.62136963 604.08384766 -233.65380859 603.703125 C-243.25920094 600.138972 -252.74982468 596.262467 -262.046875 591.95703125 C-266.01667686 590.12920881 -270.02105107 588.50161644 -274.109375 586.95703125 C-280.9104845 584.38646972 -287.49196264 581.42995801 -294.046875 578.2890625 C-298.64434501 576.13788143 -302.54092173 574.88838898 -307.609375 574.45703125 C-307.609375 575.11703125 -307.609375 575.77703125 -307.609375 576.45703125 C-310.0743901 579.00467255 -312.88176744 581.19663216 -315.609375 583.45703125 C-316.36863281 584.09125 -317.12789062 584.72546875 -317.91015625 585.37890625 C-323.57564676 590.01515053 -329.4736865 594.26086086 -335.53125 598.36328125 C-337.33054353 599.58716619 -339.11826925 600.82905049 -340.875 602.11328125 C-359.69407713 615.61704652 -383.60065203 620.64400132 -406.25 617.14453125 C-410.81133915 616.21104789 -414.54918506 614.69307789 -418.609375 612.45703125 C-419.89328125 611.80734375 -419.89328125 611.80734375 -421.203125 611.14453125 C-428.36990478 607.26603866 -431.78429069 603.14918062 -434.7109375 595.625 C-437.87765917 584.45886404 -435.20004551 574.12541933 -429.859375 564.20703125 C-420.02009775 552.18124794 -405.96738457 545.13902411 -390.609375 543.45703125 C-364.60495846 541.76287219 -341.65080712 547.94380625 -317.31542969 556.52880859 C-314.10587093 557.62974168 -310.88613413 558.57916025 -307.609375 559.45703125 C-306.990625 558.79703125 -306.371875 558.13703125 -305.734375 557.45703125 C-303.609375 555.45703125 -303.609375 555.45703125 -301.609375 555.45703125 C-301.5475 554.90015625 -301.485625 554.34328125 -301.421875 553.76953125 C-300.27781139 550.5133502 -298.0516787 548.88191481 -295.609375 546.45703125 C-288.52245792 537.88258721 -282.25088406 528.72460811 -276.01806641 519.52294922 C-274.59778091 517.44002792 -273.15949672 515.37076978 -271.71484375 513.3046875 C-266.99459223 506.54289911 -262.4568512 499.77677694 -258.390625 492.59375 C-257.10324083 490.32671165 -255.79613509 488.08502114 -254.453125 485.8515625 C-246.72123853 472.9640163 -239.66449436 459.7238606 -232.609375 446.45703125 C-232.14499023 445.58755859 -231.68060547 444.71808594 -231.20214844 443.82226562 C-224.56122816 431.3862739 -218.23282943 418.80180598 -211.9609375 406.17626953 C-209.8296273 401.88823972 -207.68569147 397.60655196 -205.54199219 393.32470703 C-203.77186822 389.78719359 -202.00798201 386.2466902 -200.25 382.703125 C-194.53381488 371.19792997 -188.63027983 359.80528481 -182.609375 348.45703125 C-180.87760244 345.18756971 -179.14886744 341.91651996 -177.421875 338.64453125 C-177.00671631 337.86013672 -176.59155762 337.07574219 -176.16381836 336.26757812 C-174.23524503 332.60931679 -172.34007476 328.9417679 -170.53125 325.22265625 C-170.21438232 324.57272705 -169.89751465 323.92279785 -169.57104492 323.25317383 C-168.73334828 321.52160051 -167.90722357 319.78444211 -167.08203125 318.046875 C-165.609375 315.45703125 -165.609375 315.45703125 -162.609375 313.45703125 C-162.3284379 322.49861926 -162.11669584 331.5386543 -161.98762894 340.58369064 C-161.92560616 344.78622815 -161.84185277 348.98573211 -161.70410156 353.18652344 C-160.59180344 388.0423848 -160.59180344 388.0423848 -173.09674072 403.54431152 C-175.29709177 406.32664623 -177.06009805 409.28063472 -178.89453125 412.31640625 C-180.14992716 414.28232754 -181.40897843 416.24591992 -182.671875 418.20703125 C-183.68519897 419.78532715 -183.68519897 419.78532715 -184.71899414 421.39550781 C-189.79678312 429.27136067 -195.00941124 437.040106 -200.38769531 444.71337891 C-202.02092795 447.04442357 -203.64301843 449.38309855 -205.26367188 451.72290039 C-206.37425515 453.32580168 -207.4878423 454.92662045 -208.6015625 456.52734375 C-210.9491305 459.95278344 -213.20411043 463.43215272 -215.41796875 466.9453125 C-215.81113281 467.44417969 -216.20429687 467.94304687 -216.609375 468.45703125 C-217.269375 468.45703125 -217.929375 468.45703125 -218.609375 468.45703125 C-219.01349609 469.29621094 -219.01349609 469.29621094 -219.42578125 470.15234375 C-224.21374123 479.47543414 -230.69819078 487.56446121 -237.21728516 495.70166016 C-238.97143109 497.91356989 -240.67968732 500.15815185 -242.38574219 502.40722656 C-247.05095221 508.55428303 -251.93880113 514.47156297 -256.953125 520.3359375 C-259.39906918 523.19864378 -261.79316114 526.10058133 -264.171875 529.01953125 C-264.88601563 529.89351562 -265.60015625 530.7675 -266.3359375 531.66796875 C-267.53832984 533.14306863 -268.7400792 534.61870437 -269.93652344 536.09863281 C-271.3012633 537.78505448 -272.67350242 539.46513678 -274.046875 541.14453125 C-274.87058594 542.15902344 -275.69429687 543.17351563 -276.54296875 544.21875 C-277.56583984 545.32669922 -277.56583984 545.32669922 -278.609375 546.45703125 C-279.269375 546.45703125 -279.929375 546.45703125 -280.609375 546.45703125 C-280.84914063 547.02550781 -281.08890625 547.59398437 -281.3359375 548.1796875 C-282.86782659 550.91923148 -284.72030929 552.7244882 -286.984375 554.89453125 C-290.10214219 557.93699006 -293.00678267 560.94918942 -295.609375 564.45703125 C-288.42708189 568.16869273 -281.12843603 571.4623272 -273.671875 574.58203125 C-272.54724854 575.05431152 -271.42262207 575.5265918 -270.26391602 576.01318359 C-266.71461502 577.49983015 -263.16239129 578.9792884 -259.609375 580.45703125 C-258.4759668 580.93011719 -257.34255859 581.40320313 -256.17480469 581.890625 C-223.52588165 595.48884965 -190.53753189 607.27632859 -155.609375 613.45703125 C-154.73152344 613.62074219 -153.85367187 613.78445313 -152.94921875 613.953125 C-138.4501309 616.56771461 -123.92304691 616.76634472 -109.234375 616.83203125 C-108.29920044 616.83997711 -107.36402588 616.84792297 -106.4005127 616.85610962 C-89.58919844 616.96582238 -73.80552218 615.1453712 -57.671875 610.26953125 C-56.6610083 609.96764893 -55.6501416 609.6657666 -54.60864258 609.35473633 C-31.5357414 602.26809846 -10.51990048 590.97064422 9.390625 577.45703125 C10.36902344 576.79574219 11.34742188 576.13445313 12.35546875 575.453125 C21.24475152 569.33061437 29.52176587 562.59633602 37.60644531 555.45629883 C40.18218334 553.20883408 42.11335249 551.54945542 45.390625 550.45703125 C45.390625 549.79703125 45.390625 549.13703125 45.390625 548.45703125 C46.96484375 546.94140625 46.96484375 546.94140625 49.078125 545.20703125 C51.65314883 543.02642128 53.97952139 540.91296465 56.078125 538.26953125 C58.390625 535.45703125 58.390625 535.45703125 60.765625 533.58203125 C63.68734407 531.21683009 65.95364928 528.62690774 68.38671875 525.7734375 C70.58116804 523.2367739 72.85736997 520.78897288 75.140625 518.33203125 C94.01126923 497.58569046 110.24468064 473.92473161 124.15380859 449.61767578 C124.96255192 448.2048494 125.775222 446.7942617 126.59228516 445.38623047 C152.15654428 401.27925045 169.24831799 353.13002163 175.390625 302.45703125 C175.54640015 301.2359668 175.54640015 301.2359668 175.70532227 299.99023438 C178.72078836 272.65290356 177.72326645 243.40717699 172.390625 216.45703125 C172.21402344 215.53390137 172.03742187 214.61077148 171.85546875 213.65966797 C165.0903299 179.33911632 151.43637335 144.56575183 130.390625 116.45703125 C129.72933594 115.54308594 129.06804688 114.62914062 128.38671875 113.6875 C114.82369634 95.17482361 98.99997372 77.19195379 81.390625 62.45703125 C80.8455127 61.998125 80.30040039 61.53921875 79.73876953 61.06640625 C55.19574271 40.48067446 28.17595537 24.14905917 -1.57885742 12.29931641 C-3.69630461 11.42097172 -5.76508757 10.46233508 -7.84375 9.49609375 C-43.25190524 -6.33334546 -85.31520348 -10.76464912 -123.734375 -10.79296875 C-124.5713089 -10.79364349 -125.4082428 -10.79431824 -126.27053833 -10.79501343 C-170.0040392 -10.73989777 -212.48778005 -4.3925974 -254.421875 8.01953125 C-255.65566895 8.38336914 -256.88946289 8.74720703 -258.16064453 9.12207031 C-265.8657749 11.4569583 -273.23776448 14.22667029 -280.609375 17.45703125 C-282.08979307 18.08605678 -283.57025728 18.71497376 -285.05078125 19.34375 C-300.82847512 26.19102849 -316.12234539 34.03580554 -330.578125 43.375 C-331.5784375 44.02082031 -332.57875 44.66664062 -333.609375 45.33203125 C-334.970625 46.22535156 -334.970625 46.22535156 -336.359375 47.13671875 C-338.609375 48.45703125 -338.609375 48.45703125 -340.609375 48.45703125 C-340.609375 49.11703125 -340.609375 49.77703125 -340.609375 50.45703125 C-342.26171875 51.71875 -342.26171875 51.71875 -344.546875 53.14453125 C-349.46710838 56.31961936 -354.03370222 59.80875614 -358.609375 63.45703125 C-359.47175781 64.1325 -360.33414063 64.80796875 -361.22265625 65.50390625 C-362.09277344 66.1896875 -362.96289062 66.87546875 -363.859375 67.58203125 C-364.64828125 68.20335938 -365.4371875 68.8246875 -366.25 69.46484375 C-368.85795455 71.66692458 -371.21964756 74.02009035 -373.609375 76.45703125 C-374.56356018 77.40260226 -375.51934485 78.34656143 -376.4765625 79.2890625 C-382.07828886 84.82994061 -387.58293021 90.37938286 -392.609375 96.45703125 C-393.2075 97.17761719 -393.805625 97.89820313 -394.421875 98.640625 C-402.25220709 108.25488355 -409.99348878 118.18642782 -416.16015625 128.96484375 C-417.21519379 130.77916707 -418.32457984 132.56221094 -419.46484375 134.32421875 C-424.83832836 142.65987572 -428.80467858 151.25433019 -432.69091797 160.35449219 C-433.97890698 163.30296676 -435.39267936 166.18744893 -436.796875 169.08203125 C-439.8484242 175.6634806 -441.97284741 182.43736558 -443.99609375 189.38330078 C-444.60312063 191.43588292 -445.24226928 193.47576036 -445.890625 195.515625 C-461.09606044 244.00099032 -461.44356358 304.65743045 -437.59375 350.60986328 C-420.04525831 383.53939903 -393.61235522 407.28001319 -357.609375 418.45703125 C-327.1900745 426.72009392 -295.37983005 424.1859967 -267.53515625 409.375 C-265.609375 408.45703125 -265.609375 408.45703125 -263.609375 408.45703125 C-263.609375 407.79703125 -263.609375 407.13703125 -263.609375 406.45703125 C-261.96742992 405.41693792 -260.29519974 404.42438472 -258.609375 403.45703125 C-226.01314196 379.35049235 -210.40143181 341.36109883 -203.609375 302.45703125 C-202.56250752 295.13081506 -202.42324584 287.91497289 -202.42407227 280.5234375 C-202.42190091 278.35786823 -202.40373944 276.1928223 -202.38476562 274.02734375 C-202.31280042 256.36297301 -204.09448554 238.88958709 -214.52368164 224.16210938 C-216.78769467 220.94836408 -218.3180725 218.42010018 -218.609375 214.45703125 C-218.279375 213.46703125 -217.949375 212.47703125 -217.609375 211.45703125 C-214.58537376 209.94503063 -212.97033666 209.87532635 -209.609375 210.45703125 C-196.24355712 222.13008064 -192.17706286 244.89060338 -190.609375 261.45703125 C-190.31151094 266.41958357 -190.22767483 271.36113972 -190.234375 276.33203125 C-190.23458649 276.99456909 -190.23479797 277.65710693 -190.23501587 278.33972168 C-190.38685234 326.5848622 -208.77447426 370.7503104 -242.234375 405.15625 C-244.22936604 407.08889757 -246.18036721 408.76648875 -248.421875 410.39453125 C-249.02644531 410.83667969 -249.63101563 411.27882813 -250.25390625 411.734375 C-251.03121094 412.30285156 -251.80851563 412.87132812 -252.609375 413.45703125 C-253.17744873 413.90828369 -253.74552246 414.35953613 -254.33081055 414.82446289 C-259.21350325 418.64609608 -264.13980641 421.49647073 -269.796875 424.01953125 C-270.654021 424.40302734 -271.51116699 424.78652344 -272.39428711 425.18164062 C-284.90800339 430.54806698 -298.94152121 434.20018568 -312.609375 434.45703125 C-313.2811377 434.47604492 -313.95290039 434.49505859 -314.64501953 434.51464844 C-354.3654518 435.55209068 -389.53161521 422.80899991 -419.00341797 396.02246094 C-421.42390274 393.66305863 -423.47604319 391.0788855 -425.609375 388.45703125 C-426.43953125 387.6371875 -427.2696875 386.81734375 -428.125 385.97265625 C-457.90031975 355.82280418 -467.87500875 304.81875174 -467.8581543 264.20288086 C-467.44303753 226.12263721 -459.54710528 185.16203902 -441.44799805 151.25927734 C-440.55912339 149.34903784 -440.05692032 147.51160677 -439.609375 145.45703125 C-438.949375 145.45703125 -438.289375 145.45703125 -437.609375 145.45703125 C-437.39539063 144.67714844 -437.18140625 143.89726562 -436.9609375 143.09375 C-435.13432693 138.17879497 -432.60205569 133.80249974 -429.984375 129.26953125 C-429.44530518 128.33206055 -428.90623535 127.39458984 -428.35083008 126.42871094 C-424.47457317 119.76717168 -420.39110587 113.50972326 -415.609375 107.45703125 C-415.02800781 106.69777344 -414.44664062 105.93851563 -413.84765625 105.15625 C-412.11988262 102.90820296 -410.36674086 100.68198892 -408.609375 98.45703125 C-408.01769531 97.69003906 -407.42601562 96.92304688 -406.81640625 96.1328125 C-400.58429044 88.15313432 -393.76932465 80.6169809 -386.609375 73.45703125 C-386.609375 72.46703125 -386.609375 71.47703125 -386.609375 70.45703125 C-386.07054687 70.40289062 -385.53171875 70.34875 -384.9765625 70.29296875 C-381.51174292 69.0694186 -379.30986854 66.60371433 -376.734375 64.08203125 C-367.09163435 54.91612185 -356.62544482 46.90649473 -345.609375 39.45703125 C-344.77019531 38.86921875 -343.93101562 38.28140625 -343.06640625 37.67578125 C-298.1224515 6.74115513 -244.40793202 -11.03420238 -190.58007812 -18.27539062 C-188.71743505 -18.52829657 -186.85852234 -18.80824946 -185 -19.08984375 C-124.3669805 -27.67735295 -56.70327074 -24.56646939 0 0 Z " fill="#000204" transform="translate(744.609375,50.54296875)"/>
<path d="M0 0 C21.36567134 -0.02332696 42.73134058 -0.04097817 64.09702206 -0.05181217 C74.01675275 -0.05697556 83.93647555 -0.06401907 93.85620117 -0.07543945 C102.49896979 -0.08538498 111.14173268 -0.09185311 119.78450686 -0.09408849 C124.36372463 -0.09539583 128.94292605 -0.09848308 133.5221386 -0.10573006 C137.82711706 -0.11248821 142.13207233 -0.11461738 146.43705559 -0.11310768 C148.02178066 -0.1133841 149.60650646 -0.11539044 151.19122696 -0.11920547 C153.34540411 -0.12413953 155.4994923 -0.12299937 157.65367126 -0.12025452 C158.86214187 -0.12117631 160.07061247 -0.1220981 161.31570339 -0.12304783 C164 0 164 0 165 1 C165.125 3.5 165.125 3.5 165 6 C163.2595238 7.7404762 160.91538236 7.37166695 158.57788086 7.59472656 C146.49396952 8.75636563 134.09069301 10.2073625 125 19 C124.18982422 19.75216797 124.18982422 19.75216797 123.36328125 20.51953125 C101.99509814 42.64125231 108.69858714 91.7125762 108.73855066 120.29676712 C108.74315271 125.18641613 108.73605379 130.07605202 108.73059082 134.96569824 C108.72177652 144.5004612 108.72358281 154.03519237 108.7294161 163.56995649 C108.73396407 171.33024458 108.73453208 179.09052387 108.73236847 186.85081291 C108.73190877 188.51818837 108.73190877 188.51818837 108.73143978 190.21924819 C108.73080023 192.47858096 108.7301518 194.73791373 108.7294946 196.9972465 C108.72381471 218.09839551 108.73031237 239.19952704 108.74109533 260.30067318 C108.75002994 278.34230323 108.74847497 296.38390752 108.73925781 314.42553711 C108.72851571 335.46142799 108.72436252 356.49730362 108.73048234 377.53319687 C108.73111933 379.78313219 108.73174807 382.03306752 108.73236847 384.28300285 C108.73267702 385.38953723 108.73298557 386.4960716 108.73330347 387.63613733 C108.73501854 395.37290781 108.73214121 403.10966849 108.72740936 410.84643745 C108.72175655 420.29517773 108.72340832 429.74388486 108.73397085 439.19262142 C108.73916889 443.99834844 108.74138673 448.80402052 108.73467255 453.60974693 C108.71327112 470.46838008 108.73969492 487.29495255 109.82867432 504.12461853 C109.89776685 505.23753629 109.96685939 506.35045406 110.03804564 507.4970966 C111.15505427 522.34513358 113.39539863 538.60514472 125 549 C140.37629755 561.0773828 159.89980044 559.65477137 178.38012695 559.73822021 C181.84015708 559.75803111 185.29991885 559.79997065 188.75976562 559.83984375 C195.50640759 559.91443685 202.25303839 559.96515263 209 560 C209 560.99 209 561.98 209 563 C198.29633661 570.43603219 189.3680154 570.98430868 176.63964844 570.81054688 C174.71819379 570.81020878 172.79673654 570.8129501 170.87528992 570.81851196 C165.695954 570.824752 160.51774565 570.7879247 155.33863735 570.74268913 C149.91129044 570.70245518 144.4839306 570.70146104 139.05645752 570.69592285 C129.95785049 570.6812486 120.85965889 570.64124928 111.76123047 570.58300781 C98.91193107 570.50079733 86.06280042 570.46461818 73.21328306 570.43749142 C63.24112117 570.41489341 53.26899289 570.38067817 43.296875 570.34375 C42.22522693 570.33984442 41.15357885 570.33593884 40.0494566 570.3319149 C33.90744478 570.30864736 27.7655126 570.27940827 21.62357521 570.24116135 C19.75987723 570.23020668 17.89616855 570.22093222 16.03245354 570.21341324 C13.50015646 570.20278815 10.96797906 570.18597612 8.43572998 570.1673584 C7.68877546 570.1654964 6.94182094 570.16363441 6.17223144 570.16171598 C1.11432552 570.11432552 1.11432552 570.11432552 0 569 C-0.04080783 567.00041636 -0.04254356 564.99954746 0 563 C0.66418945 562.93530518 1.32837891 562.87061035 2.01269531 562.80395508 C25.99331149 560.52426109 25.99331149 560.52426109 44.9921875 546.78125 C47.33065977 543.54196545 48.76728754 540.22375569 50.125 536.5 C50.38434326 535.79584961 50.64368652 535.09169922 50.91088867 534.36621094 C53.16062398 528.00404851 54.36909098 521.71956113 55 515 C55.08108468 514.22967988 55.16216936 513.45935977 55.24571115 512.66569662 C56.12919125 503.48816023 56.14286511 494.34743726 56.13371277 485.13928223 C56.13558373 483.34476597 56.13788557 481.55025013 56.14057809 479.75573492 C56.14666735 474.85036853 56.1465659 469.94501926 56.14538372 465.03964996 C56.14517898 459.73881266 56.15070549 454.43798076 56.15544128 449.137146 C56.16373295 438.76072384 56.16649547 428.38430737 56.16705366 418.00788218 C56.16752959 409.56821682 56.16958817 401.12855332 56.17275429 392.68888855 C56.18155732 368.73393626 56.18617429 344.77898843 56.18542381 320.82403451 C56.18536388 318.88859837 56.18536388 318.88859837 56.18530273 316.9140625 C56.18524141 314.97624878 56.18524141 314.97624878 56.18517885 312.99928731 C56.18477263 292.07494111 56.19433714 271.15061292 56.2084411 250.22627193 C56.22282573 228.71487811 56.22971012 207.20349307 56.22884732 185.69209433 C56.22851604 173.62580193 56.23123277 161.55952841 56.24202538 149.49324036 C56.25115793 139.21743193 56.25328313 128.94165095 56.24651595 118.66584021 C56.24326443 113.42997096 56.24314422 108.19415426 56.2518692 102.9582901 C56.25979623 98.15152525 56.25824029 93.3448541 56.24958507 88.53809136 C56.24806359 86.81266779 56.24981422 85.087237 56.25544515 83.36182195 C56.28309755 74.27623046 55.97622053 65.30848914 55.09392262 56.26161957 C55.01431267 55.43962866 54.93470273 54.61763776 54.85268037 53.77073804 C53.4341889 40.48336793 49.08832022 27.19817432 39 18 C39 17.34 39 16.68 39 16 C27.76453399 10.25400825 17.24101993 7.97147403 4.6875 7.24609375 C2 7 2 7 0 6 C0 4.02 0 2.04 0 0 Z " fill="#000204" transform="translate(532,66)"/>
<path d="M0 0 C2.31 0 4.62 0 7 0 C7.99682034 3.80731762 7.93785484 6.27498984 6.84765625 10.04296875 C6.56978271 11.02104492 6.29190918 11.99912109 6.00561523 13.00683594 C5.69438721 14.05645508 5.38315918 15.10607422 5.0625 16.1875 C4.74547119 17.28739258 4.42844238 18.38728516 4.10180664 19.52050781 C1.47830186 28.55453403 -1.28976798 37.54470928 -4.08105469 46.52807617 C-9.06638945 62.58991394 -13.4987124 78.79536464 -18 95 C-21.63 107.21 -25.26 119.42 -29 132 C-80.81 132 -132.62 132 -186 132 C-186.33 131.34 -186.66 130.68 -187 130 C-178.03573911 122.17632102 -170.39879365 121.33267296 -158.78833008 121.2175293 C-134.39312141 120.93778843 -111.29036889 113.66584111 -90 102 C-89.30350342 101.63350342 -88.60700684 101.26700684 -87.8894043 100.8894043 C-82.00055556 97.73578859 -76.66472829 94.0498457 -71.3125 90.0625 C-70.49716797 89.46759766 -69.68183594 88.87269531 -68.84179688 88.25976562 C-65.17203839 85.54527168 -61.72192811 82.84162332 -58.54296875 79.55859375 C-57.28419922 78.29208984 -57.28419922 78.29208984 -56 77 C-55.34 77 -54.68 77 -54 77 C-53.67 76.01 -53.34 75.02 -53 74 C-51.01739574 72.31267723 -49.0167658 70.64633943 -47 69 C-46.01 67.515 -46.01 67.515 -45 66 C-44.34 66 -43.68 66 -43 66 C-42.7421875 65.41992188 -42.484375 64.83984375 -42.21875 64.2421875 C-40.89621394 61.80906026 -39.40499947 60.13149534 -37.5 58.125 C-32.51399046 52.64038951 -28.36944695 46.65086701 -24.12792969 40.59033203 C-22.2106817 37.88709537 -20.19144433 35.26342556 -18.15625 32.6484375 C-16.8865081 30.83819736 -15.98601555 28.97920211 -15 27 C-13.78213522 25.03461822 -12.55145961 23.07715246 -11.3125 21.125 C-7.04478885 14.3142142 -3.47536534 7.24396462 0 0 Z " fill="#000204" transform="translate(993,504)"/>
<path d="M0 0 C2.1519437 3.22791555 2.20086443 4.28400809 2 8 C-1.00896649 9.54117796 -3.96236845 10.98570001 -7.125 12.1875 C-47.31056135 29.46024128 -68.95349073 80.53590276 -87.02929688 117.046875 C-87.97594386 118.9515973 -88.93147061 120.85154948 -89.890625 122.75 C-95.27632549 133.4221762 -100.42984113 144.20143529 -105.56787109 154.99462891 C-106.9860096 157.97064067 -108.40818414 160.94468442 -109.83203125 163.91796875 C-110.29504639 164.88492676 -110.75806152 165.85188477 -111.23510742 166.84814453 C-112.15553632 168.76984098 -113.07626788 170.69139249 -113.99731445 172.61279297 C-116.21354709 177.24183053 -118.41527119 181.87674508 -120.5859375 186.52734375 C-120.99376465 187.39842773 -121.4015918 188.26951172 -121.82177734 189.16699219 C-122.58387584 190.79730816 -123.34226947 192.42936335 -124.09619141 194.06347656 C-125.78246454 197.66651483 -127.41218327 200.93505456 -130 204 C-131.04237284 200.87288148 -131.19061863 198.5231134 -131.28808594 195.23779297 C-131.32351501 194.0516037 -131.35894409 192.86541443 -131.39544678 191.64328003 C-131.50379869 186.89011146 -131.59206063 182.13705413 -131.65206528 177.38302422 C-131.69792054 173.78933234 -131.76454297 170.19897216 -131.88476562 166.60693359 C-132.41917513 150.22585247 -132.68570609 136.61412089 -121.38330078 123.62426758 C-119.39055666 121.28439348 -117.76423289 118.74090986 -116.1015625 116.16015625 C-114.94550092 114.45903634 -113.78666897 112.75979565 -112.625 111.0625 C-111.99779053 110.14428467 -111.37058105 109.22606934 -110.72436523 108.2800293 C-105.08808806 100.06368114 -99.28687435 91.97430286 -93.40429688 83.93310547 C-92.08209555 82.11300983 -90.77924125 80.28101293 -89.484375 78.44140625 C-88.76765625 77.42949219 -88.0509375 76.41757813 -87.3125 75.375 C-86.71050781 74.51648438 -86.10851562 73.65796875 -85.48828125 72.7734375 C-84.99714844 72.18820313 -84.50601563 71.60296875 -84 71 C-83.34 71 -82.68 71 -82 71 C-81.75507812 70.27167969 -81.51015625 69.54335937 -81.2578125 68.79296875 C-79.85525932 65.67860377 -78.22086374 63.78505673 -75.875 61.3125 C-72.81045722 58.0088448 -69.89502039 54.67909641 -67.125 51.125 C-58.7301129 40.51571354 -49.14847959 30.99103413 -39.5222168 21.51220703 C-38.16168134 20.16061816 -36.82701847 18.78310029 -35.49609375 17.40234375 C-26.79735414 9.03031736 -12.71315288 -2.21098311 0 0 Z " fill="#000204" transform="translate(779,107)"/>
<path d="M0 0 C0.94649414 0.28891113 1.89298828 0.57782227 2.86816406 0.87548828 C7.51616587 2.30771246 12.14934909 3.78496178 16.75390625 5.3515625 C17.47908447 5.59729004 18.2042627 5.84301758 18.95141602 6.09619141 C21.28561752 7.12601073 23.08316773 8.31815168 25 10 C25 10.66 25 11.32 25 12 C23.05454963 13.64476252 21.10710131 15.17487783 19.0625 16.6875 C17.85515687 17.59463713 16.64812631 18.50219043 15.44140625 19.41015625 C14.84859863 19.85375488 14.25579102 20.29735352 13.64501953 20.75439453 C11.559957 22.33319967 9.5328337 23.97973459 7.5 25.625 C-10.59090997 39.61180154 -33.67174557 50.27038973 -57 48 C-66.13898237 46.64964904 -75.05364774 42.28161101 -81 35 C-83.26867672 28.62862285 -83.45975513 22.70750324 -81.1796875 16.3515625 C-79.12152118 12.2488601 -76.28450184 9.16416449 -73 6 C-72.071875 5.0925 -71.14375 4.185 -70.1875 3.25 C-50.51664167 -10.63531176 -21.5904139 -6.75260774 0 0 Z " fill="#FBFCFE" transform="translate(402,610)"/>
</svg>
